<svg width="80" height="80" viewBox="0 0 80 80" fill="none" xmlns="http://www.w3.org/2000/svg">
<circle cx="40" cy="40" r="40" fill="#F2F2F2"/>
<g clip-path="url(#clip0)">
<path d="M59.2769 34.9087C59.1599 34.6626 59.0327 34.4239 58.901 34.1885C59.2899 33.563 59.4999 32.8387 59.4999 32.0932C59.4999 29.9033 57.7182 28.1215 55.5282 28.1215C54.6161 28.1215 53.7397 28.4362 53.04 28.9996C52.8764 28.9331 52.7117 28.869 52.5443 28.8095C51.155 28.3152 49.6966 28.0849 48.2362 28.126C48.2162 28.1247 48.196 28.124 48.1757 28.124H43.7641C43.2625 28.124 42.8559 28.5306 42.8559 29.0322V29.3789C42.8559 29.9104 42.4581 30.3596 41.9305 30.4238C41.6088 30.4631 41.2915 30.354 41.0614 30.1255C40.8612 29.9269 40.7508 29.6617 40.7508 29.3789V29.032C40.7508 28.5305 40.3442 28.1239 39.8427 28.1239H20.4629C20.2184 28.1239 19.9844 28.2224 19.8135 28.3972C19.6427 28.572 19.5495 28.8082 19.5549 29.0526L19.6995 35.4249C19.7092 35.8503 20.013 36.212 20.4305 36.295L28.4098 37.8806C32.5358 38.7004 36.0054 41.3961 37.9286 45.2764C39.257 47.9565 41.528 50.0216 44.3235 51.0913C45.6884 51.6136 47.1156 51.8784 48.5654 51.8786C48.5656 51.8786 48.5656 51.8786 48.5661 51.8786C53.5765 51.8786 58.0739 48.7039 59.757 43.9789C60.816 41.0062 60.6454 37.785 59.2769 34.9087ZM55.5282 29.9378C56.7168 29.9378 57.6837 30.9047 57.6837 32.0932C57.6837 32.1898 57.675 32.2852 57.6623 32.3799C56.8943 31.4557 55.9926 30.6591 54.9845 30.0106C55.1605 29.9645 55.3426 29.9378 55.5282 29.9378ZM58.0462 43.3694C56.6201 47.3729 52.8102 50.0625 48.5656 50.0623C47.3386 50.0623 46.1296 49.8378 44.9728 49.3951C42.6049 48.4891 40.6814 46.7399 39.5561 44.47C37.3807 40.0809 33.4472 37.0299 28.7639 36.0994L21.499 34.6558L21.392 29.9401H38.989C39.0986 30.4962 39.3709 31.0067 39.7822 31.4146C40.3237 31.952 41.0403 32.2479 41.8 32.2479C41.9163 32.2479 42.034 32.2408 42.15 32.2266C43.3976 32.0748 44.3791 31.133 44.617 29.9403H48.0864C48.1267 29.9443 48.1673 29.9455 48.2087 29.9441C49.4708 29.8982 50.7334 30.0928 51.9356 30.5206C54.4527 31.4162 56.4776 33.2517 57.6372 35.6889C58.7968 38.1268 58.9421 40.8543 58.0462 43.3694Z" fill="#343434"/>
<path d="M48.5714 35.3569C46.0098 35.3569 43.9258 37.441 43.9258 40.0026C43.9258 42.5642 46.0098 44.6482 48.5714 44.6482C51.133 44.6482 53.2171 42.5642 53.2171 40.0026C53.2171 37.441 51.133 35.3569 48.5714 35.3569ZM48.5714 42.8321C47.0113 42.8321 45.742 41.5629 45.742 40.0027C45.742 38.4426 47.0113 37.1733 48.5714 37.1733C50.1316 37.1733 51.4008 38.4426 51.4008 40.0027C51.4008 41.5629 50.1316 42.8321 48.5714 42.8321Z" fill="#343434"/>
</g>
<defs>
<clipPath id="clip0">
<rect width="40.8889" height="40.8889" fill="white" transform="translate(19.5547 19.5555)"/>
</clipPath>
</defs>
</svg>
